{
  "accessors": [
    {
      "bufferView": 0,
      "componentType": 5125,
      "count": 32478,
      "type": "SCALAR"
    },
    {
      "bufferView": 1,
      "componentType": 5126,
      "count": 6260,
      "max": [
        0.176073119044304,
        0.509833455085754,
        1.0
      ],
      "min": [
        -0.176073119044304,
        -0.50983339548111,
        -1.0
      ],
      "type": "VEC3"
    },
    {
      "bufferView": 2,
      "componentType": 5126,
      "count": 6260,
      "type": "VEC3"
    },
    {
      "bufferView": 3,
      "componentType": 5126,
      "count": 6260,
      "type": "VEC2"
    },
    {
      "bufferView": 4,
      "componentType": 5125,
      "count": 714,
      "type": "SCALAR"
    },
    {
      "bufferView": 5,
      "componentType": 5126,
      "count": 127,
      "max": [
        0.0865153968334198,
        0.34765762090683,
        0.933909714221954
      ],
      "min": [
        0.0177607126533985,
        0.280626773834229,
        0.884616613388062
      ],
      "type": "VEC3"
    },
    {
      "bufferView": 6,
      "componentType": 5126,
      "count": 127,
      "type": "VEC3"
    },
    {
      "bufferView": 7,
      "componentType": 5126,
      "count": 127,
      "type": "VEC2"
    },
    {
      "bufferView": 8,
      "componentType": 5125,
      "count": 714,
      "type": "SCALAR"
    },
    {
      "bufferView": 9,
      "componentType": 5126,
      "count": 127,
      "max": [
        -0.0177717059850693,
        0.34765762090683,
        0.933909714221954
      ],
      "min": [
        -0.0865263864398003,
        0.280626773834229,
        0.884616613388062
      ],
      "type": "VEC3"
    },
    {
      "bufferView": 10,
      "componentType": 5126,
      "count": 127,
      "type": "VEC3"
    },
    {
      "bufferView": 11,
      "componentType": 5126,
      "count": 127,
      "type": "VEC2"
    }
  ],
  "asset": {
    "generator": "Substance Painter 2018.1.1",
    "version": "2.0"
  },
  "bufferViews": [
    {
      "buffer": 0,
      "byteLength": 129912,
      "target": 34963
    },
    {
      "buffer": 0,
      "byteLength": 75120,
      "byteOffset": 129912,
      "target": 34962
    },
    {
      "buffer": 0,
      "byteLength": 75120,
      "byteOffset": 205032,
      "target": 34962
    },
    {
      "buffer": 0,
      "byteLength": 50080,
      "byteOffset": 280152,
      "target": 34962
    },
    {
      "buffer": 0,
      "byteLength": 2856,
      "byteOffset": 330232,
      "target": 34963
    },
    {
      "buffer": 0,
      "byteLength": 1524,
      "byteOffset": 333088,
      "target": 34962
    },
    {
      "buffer": 0,
      "byteLength": 1524,
      "byteOffset": 334612,
      "target": 34962
    },
    {
      "buffer": 0,
      "byteLength": 1016,
      "byteOffset": 336136,
      "target": 34962
    },
    {
      "buffer": 0,
      "byteLength": 2856,
      "byteOffset": 337152,
      "target": 34963
    },
    {
      "buffer": 0,
      "byteLength": 1524,
      "byteOffset": 340008,
      "target": 34962
    },
    {
      "buffer": 0,
      "byteLength": 1524,
      "byteOffset": 341532,
      "target": 34962
    },
    {
      "buffer": 0,
      "byteLength": 1016,
      "byteOffset": 343056,
      "target": 34962
    }
  ],
  "buffers": [
    {
      "byteLength": 344072,
      "uri": "cat.bin"
    }
  ],
  "images": [
    {
      "uri": "m_cat_body_pbr_mr_baseColor.png"
    },
    {
      "uri": "m_cat_body_pbr_mr_occlusionRoughnessMetallic.png"
    },
    {
      "uri": "m_cat_body_pbr_mr_normal.png"
    },
    {
      "uri": "m_cat_eye_left_pbr_mr_baseColor.png"
    },
    {
      "uri": "m_cat_eye_left_pbr_mr_occlusionRoughnessMetallic.png"
    },
    {
      "uri": "m_cat_eye_left_pbr_mr_normal.png"
    },
    {
      "uri": "m_cat_eye_right_pbr_mr_baseColor.png"
    },
    {
      "uri": "m_cat_eye_right_pbr_mr_occlusionRoughnessMetallic.png"
    },
    {
      "uri": "m_cat_eye_right_pbr_mr_normal.png"
    }
  ],
  "materials": [
    {
      "alphaMode": "OPAQUE",
      "name": "m_cat_body_pbr_mr",
      "normalTexture": {
        "index": 2
      },
      "occlusionTexture": {
        "index": 1
      },
      "pbrMetallicRoughness": {
        "baseColorTexture": {
          "index": 0
        },
        "metallicRoughnessTexture": {
          "index": 1
        }
      }
    },
    {
      "alphaMode": "OPAQUE",
      "name": "m_cat_eye_left_pbr_mr",
      "normalTexture": {
        "index": 5
      },
      "occlusionTexture": {
        "index": 4
      },
      "pbrMetallicRoughness": {
        "baseColorTexture": {
          "index": 3
        },
        "metallicRoughnessTexture": {
          "index": 4
        }
      }
    },
    {
      "alphaMode": "OPAQUE",
      "name": "m_cat_eye_right_pbr_mr",
      "normalTexture": {
        "index": 8
      },
      "occlusionTexture": {
        "index": 7
      },
      "pbrMetallicRoughness": {
        "baseColorTexture": {
          "index": 6
        },
        "metallicRoughnessTexture": {
          "index": 7
        }
      }
    }
  ],
  "meshes": [
    {
      "name": "cat_body",
      "primitives": [
        {
          "attributes": {
            "NORMAL": 2,
            "POSITION": 1,
            "TEXCOORD_0": 3
          },
          "indices": 0,
          "material": 0,
          "mode": 4
        }
      ]
    },
    {
      "name": "cat_eye_left",
      "primitives": [
        {
          "attributes": {
            "NORMAL": 6,
            "POSITION": 5,
            "TEXCOORD_0": 7
          },
          "indices": 4,
          "material": 1,
          "mode": 4
        }
      ]
    },
    {
      "name": "cat_eye_right",
      "primitives": [
        {
          "attributes": {
            "NORMAL": 10,
            "POSITION": 9,
            "TEXCOORD_0": 11
          },
          "indices": 8,
          "material": 2,
          "mode": 4
        }
      ]
    }
  ],
  "nodes": [
    {
      "children": [
        1,
        3,
        5
      ],
      "name": "root",
      "scale": [
        10,
        10,
        10
      ],
      "translation": [
        0,
        0,
        0
      ]
    },
    {
      "children": [
        2
      ],
      "name": "cat_body"
    },
    {
      "mesh": 0,
      "name": "cat_body_mesh"
    },
    {
      "children": [
        4
      ],
      "name": "cat_eye_left"
    },
    {
      "mesh": 1,
      "name": "cat_eye_left"
    },
    {
      "children": [
        6
      ],
      "name": "cat_eye_right"
    },
    {
      "mesh": 2,
      "name": "cat_eye_right"
    }
  ],
  "samplers": [
    {
      "magFilter": 9729,
      "minFilter": 9985,
      "wrapS": 10497,
      "wrapT": 10497
    }
  ],
  "scene": 0,
  "scenes": [
    {
      "name": "Scene",
      "nodes": [
        0
      ]
    }
  ],
  "textures": [
    {
      "sampler": 0,
      "source": 0
    },
    {
      "sampler": 0,
      "source": 1
    },
    {
      "sampler": 0,
      "source": 2
    },
    {
      "sampler": 0,
      "source": 3
    },
    {
      "sampler": 0,
      "source": 4
    },
    {
      "sampler": 0,
      "source": 5
    },
    {
      "sampler": 0,
      "source": 6
    },
    {
      "sampler": 0,
      "source": 7
    },
    {
      "sampler": 0,
      "source": 8
    }
  ]
}